<?xml version="1.0" standalone="no"?>
<!DOCTYPE svg PUBLIC "-//W3C//DTD SVG 20010904//EN"
 "http://www.w3.org/TR/2001/REC-SVG-20010904/DTD/svg10.dtd">
<svg version="1.0" xmlns="http://www.w3.org/2000/svg"
 width="613.000000pt" height="490.000000pt" viewBox="0 0 613.000000 490.000000"
 preserveAspectRatio="xMidYMid meet">

<g transform="translate(0.000000,490.000000) scale(0.100000,-0.100000)"
fill="#000000" stroke="none">
<path d="M2949 3562 c6 -2 8 -9 5 -14 -5 -7 -2 -8 7 -3 7 5 29 12 49 16 30 6
27 7 -18 6 -30 -1 -49 -3 -43 -5z"/>
<path d="M3121 3566 c2 -2 36 -6 74 -9 54 -4 61 -4 30 3 -40 9 -112 13 -104 6z"/>
<path d="M2883 3553 c9 -2 25 -2 35 0 9 3 1 5 -18 5 -19 0 -27 -2 -17 -5z"/>
<path d="M2828 3543 c6 -2 18 -2 25 0 6 3 1 5 -13 5 -14 0 -19 -2 -12 -5z"/>
<path d="M3018 3543 c7 -3 16 -2 19 1 4 3 -2 6 -13 5 -11 0 -14 -3 -6 -6z"/>
<path d="M3045 3536 c-7 -10 -38 -16 -107 -19 -54 -2 -101 -6 -104 -10 -3 -3
43 -7 104 -9 84 -2 108 0 105 10 -3 7 3 12 15 12 11 0 23 6 26 13 5 10 7 10
12 0 3 -7 15 -13 26 -13 17 0 18 2 4 15 -19 19 -68 19 -81 1z"/>
<path d="M3158 3543 c7 -3 16 -2 19 1 4 3 -2 6 -13 5 -11 0 -14 -3 -6 -6z"/>
<path d="M2735 3521 l-20 -9 20 -4 c11 -3 2 -4 -20 -2 -30 2 -35 1 -20 -6 l20
-9 -20 -1 c-14 -2 -11 -5 12 -12 35 -12 87 -3 78 12 -3 6 -1 10 6 10 7 0 4 7
-7 15 -22 16 -22 16 -49 6z m8 -38 c-7 -2 -19 -2 -25 0 -7 3 -2 5 12 5 14 0
19 -2 13 -5z"/>
<path d="M3320 3521 c0 -6 6 -8 13 -6 6 3 26 1 42 -4 25 -8 26 -9 8 -10 -13
-1 -23 -5 -23 -10 0 -6 12 -6 32 0 43 12 70 11 43 -2 -15 -6 -11 -7 15 -3 46
8 37 1 -25 -19 -42 -14 -47 -14 -31 -2 17 13 17 15 4 15 -9 0 -19 -4 -23 -10
-3 -5 -12 -7 -20 -3 -8 3 -23 2 -32 -1 -15 -6 -15 -8 -3 -16 8 -6 22 -10 30
-10 13 0 13 1 0 10 -8 5 -10 10 -4 10 5 0 14 -4 20 -9 5 -4 25 -11 44 -15 24
-4 30 -3 20 3 -17 12 -16 13 29 29 27 9 37 9 42 0 5 -7 11 -9 16 -5 10 11 -13
25 -72 42 -79 22 -125 29 -125 16z"/>
<path d="M3225 3510 c-11 -5 -34 -9 -52 -9 -17 -1 -34 -4 -36 -8 -3 -5 27 -8
66 -8 50 0 75 -4 83 -14 9 -11 11 -11 11 0 0 8 4 22 8 32 8 19 -14 21 -27 2
-5 -6 -8 -5 -8 3 0 14 -16 15 -45 2z"/>
<path d="M3080 3489 c0 -5 5 -7 10 -4 6 3 10 8 10 11 0 2 -4 4 -10 4 -5 0 -10
-5 -10 -11z"/>
<path d="M2640 3480 c0 -5 8 -11 18 -13 10 -3 6 -5 -10 -6 -16 0 -28 -5 -28
-11 0 -14 43 -12 63 3 16 11 15 13 -13 24 -16 6 -30 7 -30 3z"/>
<path d="M2600 3470 c-8 -5 -10 -10 -5 -10 6 0 17 5 25 10 8 5 11 10 5 10 -5
0 -17 -5 -25 -10z"/>
<path d="M2761 3455 c-21 -12 -22 -14 -5 -19 11 -3 7 -4 -8 -2 -16 2 -28 -1
-28 -5 0 -5 10 -9 23 -9 22 -1 22 -1 2 -17 l-20 -16 20 7 c11 4 34 10 50 14
l30 6 -25 7 c-24 7 -24 7 5 9 l30 2 -30 8 -30 8 30 2 c26 1 27 3 10 10 -25 11
-25 11 -54 -5z"/>
<path d="M3540 3460 c8 -5 20 -10 25 -10 6 0 3 5 -5 10 -8 5 -19 10 -25 10 -5
0 -3 -5 5 -10z"/>
<path d="M2860 3450 l-25 -8 25 -2 25 -2 -25 -8 c-20 -6 -21 -8 -5 -8 11 0 31
4 45 8 l25 8 -25 1 c-20 1 -22 3 -10 11 18 11 5 11 -30 0z"/>
<path d="M3248 3453 c7 -3 16 -2 19 1 4 3 -2 6 -13 5 -11 0 -14 -3 -6 -6z"/>
<path d="M2988 3443 c34 -2 88 -2 120 0 31 2 3 3 -63 3 -66 0 -92 -1 -57 -3z"/>
<path d="M3479 3436 l-24 -10 30 -4 c34 -4 48 -21 34 -39 -6 -7 -8 -17 -4 -23
3 -5 0 -10 -7 -10 -9 0 -9 -3 2 -10 8 -5 20 -10 25 -10 6 0 4 4 -3 9 -10 6
-10 10 2 20 8 7 20 9 27 5 6 -4 29 -8 50 -10 29 -3 39 0 39 11 0 8 4 15 10 15
15 0 2 24 -21 39 -17 10 -24 10 -33 0 -8 -9 -8 -10 2 -5 18 11 37 -4 21 -16
-11 -8 -10 -9 4 -4 9 3 17 1 17 -5 0 -7 -10 -9 -26 -5 -14 4 -32 2 -40 -4 -7
-7 -18 -8 -25 -4 -8 5 -4 11 12 21 l24 14 -27 -4 c-28 -4 -54 14 -44 31 7 12
-15 11 -45 -2z"/>
<path d="M2532 3430 c2 -10 -6 -15 -24 -15 -16 -1 -34 -7 -40 -14 -11 -10 -9
-11 6 -5 14 5 17 4 12 -5 -5 -7 -17 -10 -28 -8 -19 5 -19 5 -2 -14 18 -20 18
-20 26 1 5 14 14 20 25 16 10 -3 25 -1 33 4 13 9 13 10 0 10 -13 0 -13 1 0 10
12 8 13 11 2 22 -11 11 -13 10 -10 -2z m-12 -30 c8 -5 11 -10 5 -10 -5 0 -17
5 -25 10 -8 5 -10 10 -5 10 6 0 17 -5 25 -10z"/>
<path d="M3568 3433 c6 -2 18 -2 25 0 6 3 1 5 -13 5 -14 0 -19 -2 -12 -5z"/>
<path d="M2565 3410 c-3 -11 -19 -27 -36 -37 -29 -18 -37 -37 -19 -48 6 -3 10
-1 10 5 0 6 4 9 9 6 5 -3 12 1 15 10 3 8 11 12 18 8 7 -5 9 -1 6 13 -3 13 1
24 14 32 10 6 16 16 13 21 -10 16 -23 11 -30 -10z"/>
<path d="M3358 3422 c13 -4 23 -11 22 -17 -1 -5 4 -11 11 -14 7 -2 9 1 5 8 -4
6 -1 11 6 11 9 0 9 3 -2 10 -8 5 -26 9 -40 9 -25 -1 -25 -1 -2 -7z"/>
<path d="M3685 3368 c1 -13 3 -34 4 -48 l1 -25 24 25 c23 24 25 40 5 40 -6 0
-7 -5 -3 -11 4 -7 1 -10 -7 -7 -8 3 -14 12 -14 21 0 8 -3 18 -6 22 -4 3 -5 -5
-4 -17z"/>
<path d="M2654 3364 c-18 -14 -18 -14 6 -3 31 14 36 19 24 19 -6 0 -19 -7 -30
-16z"/>
<path d="M2413 3363 c-7 -2 -13 -11 -13 -19 0 -7 -6 -11 -13 -8 -7 2 -22 -6
-33 -18 l-19 -23 21 18 c26 22 33 22 30 0 -3 -22 20 -47 35 -37 8 4 7 9 -2 15
-12 7 -11 9 1 10 8 0 4 4 -9 8 l-23 6 27 28 c26 26 25 32 -2 20z"/>
<path d="M3460 3366 c0 -2 7 -6 15 -10 8 -3 15 -1 15 4 0 6 -7 10 -15 10 -8 0
-15 -2 -15 -4z"/>
<path d="M2608 3353 c7 -3 16 -2 19 1 4 3 -2 6 -13 5 -11 0 -14 -3 -6 -6z"/>
<path d="M3553 3334 c0 -8 14 -25 30 -36 17 -12 28 -17 24 -11 -4 6 -2 13 4
15 7 2 5 9 -5 17 -14 12 -16 12 -10 -4 6 -15 5 -16 -15 -4 -12 8 -17 15 -11
17 6 2 8 8 4 13 -8 14 -21 11 -21 -7z"/>
<path d="M2434 3315 c1 -29 1 -28 27 -14 20 10 20 11 2 24 -26 20 -31 18 -29
-10z"/>
<path d="M2563 3325 c0 -7 6 -11 14 -8 7 3 13 6 13 8 0 2 -6 5 -13 8 -8 3 -14
-1 -14 -8z"/>
<path d="M3660 3329 c0 -5 5 -7 10 -4 6 3 10 8 10 11 0 2 -4 4 -10 4 -5 0 -10
-5 -10 -11z"/>
<path d="M3750 3332 c0 -7 -6 -12 -12 -12 -7 0 -14 -11 -14 -25 -1 -15 2 -22
9 -18 6 3 7 1 3 -6 -4 -6 -12 -9 -17 -6 -12 8 -11 3 7 -33 15 -31 30 -45 49
-48 6 0 16 -2 23 -2 6 -1 12 -13 12 -27 0 -14 5 -25 10 -25 17 0 11 36 -8 53
-10 10 -26 17 -34 17 -9 0 -21 7 -29 16 -10 13 -10 17 1 24 8 5 19 6 25 2 5
-3 4 2 -4 11 -7 9 -11 23 -8 31 3 8 1 17 -6 19 -7 2 -9 8 -5 12 4 4 14 0 23
-9 9 -9 12 -16 6 -16 -18 0 -13 -20 7 -27 9 -4 20 -11 25 -17 5 -7 10 -6 17 4
6 9 10 11 10 3 0 -7 -10 -18 -22 -24 -21 -11 -21 -12 -3 -25 10 -7 22 -11 26
-8 9 5 5 -40 -5 -66 -5 -12 3 -15 36 -15 37 0 43 -3 40 -20 -1 -11 -8 -30 -14
-42 -9 -19 -14 -21 -27 -10 -14 11 -14 10 -2 -6 8 -9 16 -15 19 -12 3 3 11 0
19 -6 16 -14 17 3 1 19 -7 7 -8 12 -2 12 6 0 15 -5 22 -12 9 -9 12 -9 12 2 0
7 3 10 7 7 11 -11 32 13 27 31 -5 15 -4 15 9 0 24 -30 29 -20 5 12 -13 19 -24
26 -29 19 -5 -8 -8 -8 -13 0 -4 6 -12 8 -18 5 -6 -4 -9 -1 -6 7 3 8 13 13 22
11 14 -3 13 1 -5 22 -12 13 -27 22 -33 20 -7 -3 -21 4 -31 16 -10 11 -24 20
-32 20 -16 0 -17 12 -2 27 15 15 2 34 -18 26 -11 -4 -14 -3 -9 5 5 8 1 10 -10
5 -13 -5 -16 -3 -11 9 3 10 -4 25 -19 39 -13 12 -24 17 -24 11z m141 -173 c25
-17 28 -18 22 -3 -4 12 -3 15 5 10 18 -11 15 -24 -8 -36 -16 -8 -20 -8 -18 2
2 8 -6 12 -22 10 -19 -2 -22 0 -10 8 10 6 11 10 3 10 -7 0 -13 5 -13 10 0 15
9 12 41 -11z m63 -74 c16 -24 16 -25 -6 -21 -21 3 -24 8 -19 36 2 15 7 12 25
-15z"/>
<path d="M3223 3303 c9 -2 23 -2 30 0 6 3 -1 5 -18 5 -16 0 -22 -2 -12 -5z"/>
<path d="M3331 3289 c11 -11 23 -19 25 -16 3 3 -2 12 -11 21 -9 9 -21 16 -26
16 -5 0 0 -9 12 -21z"/>
<path d="M2465 3286 c-33 -14 -65 -46 -46 -46 6 0 11 5 11 10 0 6 8 10 18 10
14 -1 13 -4 -6 -20 -13 -10 -30 -16 -37 -13 -8 3 -15 1 -15 -5 0 -5 -7 -12
-15 -16 -18 -6 -47 3 -41 13 3 4 -4 20 -15 37 -11 16 -19 22 -18 14 3 -27 -1
-40 -12 -40 -6 0 -8 7 -5 17 6 15 4 15 -14 -2 -11 -10 -20 -19 -20 -20 0 0 12
0 28 0 31 1 55 -13 46 -27 -3 -5 2 -19 13 -30 16 -19 16 -21 1 -15 -19 7 -33
-7 -22 -24 10 -16 64 40 57 60 -5 12 -3 13 6 5 10 -9 20 -4 44 18 18 16 44 36
60 44 15 8 27 17 27 20 0 3 -4 2 -10 -1 -5 -3 -10 -2 -10 4 0 5 6 12 13 14 6
3 8 6 2 6 -5 0 -24 -6 -40 -13z m15 -16 c0 -5 -5 -10 -11 -10 -5 0 -7 5 -4 10
3 6 8 10 11 10 2 0 4 -4 4 -10z m-124 -85 c17 -16 14 -18 -10 -9 -9 3 -16 10
-16 15 0 13 9 11 26 -6z"/>
<path d="M3150 3290 c-11 -8 -8 -9 14 -4 17 4 31 2 35 -5 5 -8 19 -9 47 -2 37
9 38 9 8 10 -17 1 -44 3 -60 6 -16 3 -36 1 -44 -5z"/>
<path d="M3631 3286 c-9 -11 -9 -16 1 -22 7 -4 10 -4 6 1 -4 4 -3 14 3 22 6 7
9 13 6 13 -2 0 -10 -6 -16 -14z"/>
<path d="M3664 3288 c-14 -22 -13 -37 4 -50 15 -11 15 -11 5 3 -15 18 -8 29
19 29 10 0 18 5 18 12 0 6 -3 8 -7 5 -3 -4 -12 -2 -19 4 -9 7 -15 6 -20 -3z"/>
<path d="M3286 3275 c-3 -10 -20 -15 -48 -16 -40 -1 -41 -1 -15 -9 30 -9 57
-4 69 14 4 6 12 5 22 -3 19 -16 22 -1 4 17 -16 16 -25 15 -32 -3z"/>
<path d="M3109 3267 c15 -19 8 -22 -20 -7 -11 7 -19 7 -19 1 0 -5 6 -12 13
-15 6 -3 0 -4 -16 -1 -19 4 -45 -4 -87 -27 -33 -17 -57 -34 -55 -37 3 -3 -5
-11 -17 -18 l-23 -14 24 7 c20 5 23 3 18 -11 -4 -9 -3 -15 1 -13 52 21 122 54
122 58 0 3 -15 6 -33 7 -26 1 -28 0 -12 -7 13 -6 15 -9 5 -9 -8 0 -21 3 -28 8
-11 6 -10 10 5 16 10 5 25 7 33 6 12 -1 12 0 2 7 -11 8 -11 10 2 15 8 3 16 2
18 -4 2 -5 35 2 73 16 46 16 60 24 40 23 -17 -1 -37 2 -45 7 -13 8 -13 7 -1
-8z m-141 -104 c-5 -6 -16 -9 -25 -6 -12 5 -12 7 -1 14 7 5 9 9 5 9 -5 0 -5 4
-2 10 4 6 11 5 20 -3 9 -8 10 -16 3 -24z"/>
<path d="M3143 3233 c9 -2 23 -2 30 0 6 3 -1 5 -18 5 -16 0 -22 -2 -12 -5z"/>
<path d="M3270 3229 c-34 -6 -33 -6 13 -8 46 -1 59 3 35 11 -7 2 -29 1 -48 -3z"/>
<path d="M3783 3233 c-15 -5 -17 -23 -4 -23 5 0 11 7 15 15 3 8 4 15 3 14 -1
0 -8 -3 -14 -6z"/>
<path d="M3857 3233 c-3 -4 7 -17 22 -27 l26 -20 -20 25 c-11 13 -21 25 -21
27 -1 2 -4 0 -7 -5z"/>
<path d="M3105 3220 c3 -6 -4 -10 -16 -10 -12 0 -20 -3 -16 -6 10 -10 58 5 52
16 -3 6 -11 10 -16 10 -6 0 -7 -4 -4 -10z"/>
<path d="M3178 3213 c6 -2 18 -2 25 0 6 3 1 5 -13 5 -14 0 -19 -2 -12 -5z"/>
<path d="M2226 3155 c18 -30 18 -30 -2 -12 -27 23 -37 22 -22 -3 10 -15 10
-22 0 -32 -17 -17 -15 -29 3 -22 8 4 12 10 9 15 -3 5 2 9 10 9 25 0 7 -28 -25
-39 -29 -10 -48 -36 -35 -48 3 -4 12 2 19 11 12 16 17 17 36 6 l23 -12 -20
-21 c-21 -22 -22 -25 -22 -49 0 -9 -4 -8 -10 2 -8 12 -10 12 -10 1 0 -8 -3
-11 -6 -8 -4 4 -1 13 6 22 7 9 9 19 5 23 -4 4 -10 1 -12 -6 -3 -6 -10 -9 -16
-5 -7 3 -9 3 -5 -2 4 -4 3 -14 -3 -22 -9 -10 -8 -13 4 -13 10 0 14 -9 13 -25
0 -14 -5 -25 -9 -25 -5 0 -5 -5 -1 -11 9 -16 24 10 16 29 -3 10 -1 13 6 8 7
-4 18 7 29 30 10 21 30 51 45 68 18 19 26 37 22 48 -4 13 -1 16 9 12 19 -7 31
25 16 43 -7 7 -14 11 -17 8 -3 -2 1 -12 9 -22 12 -15 12 -16 -2 -11 -9 4 -20
-2 -27 -12 -9 -14 -8 -20 1 -23 8 -3 6 -10 -7 -23 -18 -18 -18 -18 -13 -1 4
11 3 16 -3 12 -14 -9 -12 8 5 41 19 37 20 78 1 71 -7 -3 -19 0 -26 6 -7 7 -4
-1 6 -18z"/>
<path d="M3775 3150 c10 -11 20 -18 23 -15 7 6 -18 35 -31 35 -5 0 -2 -9 8
-20z"/>
<path d="M2846 3129 c-21 -17 -25 -24 -14 -30 7 -5 18 -9 23 -9 6 0 3 5 -5 10
-12 7 -12 12 -2 22 9 9 15 9 23 1 13 -13 42 -6 34 8 -3 4 -13 5 -22 2 -11 -4
-14 -3 -9 5 11 18 2 15 -28 -9z"/>
<path d="M2172 3125 c-7 -8 -9 -15 -4 -15 5 0 15 7 22 15 16 19 -1 19 -18 0z"/>
<path d="M3245 3110 c-35 -7 -32 -8 25 -8 78 1 126 -5 136 -15 4 -4 19 -8 33
-8 25 -1 25 -2 -4 -8 -29 -7 -29 -7 -6 -15 14 -5 27 -4 34 3 6 6 18 11 27 11
19 -1 -25 -25 -62 -34 -21 -5 -28 -3 -28 9 0 18 -12 19 -28 3 -9 -9 1 -16 45
-29 32 -10 59 -16 62 -14 4 4 -2 7 -39 18 -8 2 6 8 33 12 33 5 47 12 47 23 0
12 3 13 12 4 7 -7 19 -12 28 -12 9 1 6 6 -10 14 -14 8 -28 12 -32 10 -3 -2
-19 1 -35 7 -15 6 -37 13 -48 15 -11 2 -42 8 -70 13 -56 11 -64 11 -120 1z"/>
<path d="M3815 3100 c10 -11 20 -20 23 -20 3 0 -3 9 -13 20 -10 11 -20 20 -23
20 -3 0 3 -9 13 -20z"/>
<path d="M3185 3100 c3 -5 8 -10 11 -10 2 0 4 5 4 10 0 6 -5 10 -11 10 -5 0
-7 -4 -4 -10z"/>
<path d="M2780 3075 c-13 -14 -20 -25 -15 -25 5 0 0 -6 -10 -14 -11 -8 -22
-13 -25 -11 -3 2 -7 -6 -7 -17 -2 -26 -28 -53 -51 -53 -11 0 -16 -6 -14 -19 2
-10 -1 -15 -6 -12 -5 3 -18 -4 -28 -15 -11 -12 -17 -22 -14 -23 2 0 -2 -11
-11 -23 -9 -13 -19 -20 -23 -16 -4 4 -4 -1 0 -11 5 -13 4 -17 -4 -12 -6 3 -14
1 -18 -5 -4 -8 -3 -9 4 -5 7 4 12 2 12 -4 0 -6 5 -8 11 -4 8 4 9 -1 5 -17 -6
-20 -5 -21 4 -6 6 9 8 22 5 27 -3 6 -2 10 4 10 6 0 15 10 22 21 8 17 8 20 -1
14 -8 -5 -11 -3 -8 6 3 8 10 13 17 12 14 -4 44 54 35 69 -5 7 -2 9 8 5 16 -6
82 55 71 66 -2 3 5 10 16 17 12 6 18 16 15 22 -5 7 -2 9 9 5 12 -4 14 -2 10
11 -6 15 -5 16 13 2 17 -14 18 -13 7 1 -7 9 -10 19 -6 22 3 4 4 7 1 7 -2 0
-15 -11 -28 -25z m-135 -174 c-3 -6 -11 -11 -17 -11 -6 0 -6 6 2 15 14 17 26
13 15 -4z m-35 -61 c0 -5 -5 -10 -11 -10 -5 0 -7 5 -4 10 3 6 8 10 11 10 2 0
4 -4 4 -10z"/>
<path d="M3106 3091 c-14 -5 -16 -10 -8 -15 16 -10 74 3 66 15 -6 11 -31 11
-58 0z"/>
<path d="M2136 3081 c-4 -5 -3 -17 1 -27 4 -11 3 -15 -4 -11 -7 5 -9 -1 -6
-14 6 -20 7 -19 18 7 6 16 8 31 3 32 -4 2 -6 8 -2 13 3 5 3 9 0 9 -3 0 -7 -4
-10 -9z"/>
<path d="M2165 3080 c3 -5 8 -10 11 -10 2 0 4 5 4 10 0 6 -5 10 -11 10 -5 0
-7 -4 -4 -10z"/>
<path d="M3235 3080 c-41 -6 -36 -7 23 -4 47 2 71 0 67 -6 -3 -6 0 -10 7 -11
7 0 4 -4 -7 -9 -15 -6 -16 -9 -4 -9 9 -1 26 7 38 18 18 16 19 20 5 25 -18 7
-59 6 -129 -4z"/>
<path d="M3065 3070 c-3 -5 -1 -10 4 -10 6 0 11 5 11 10 0 6 -2 10 -4 10 -3 0
-8 -4 -11 -10z"/>
<path d="M3097 3055 c-38 -5 -66 -13 -62 -16 3 -4 23 -3 43 2 20 5 79 9 131 9
52 0 92 3 88 6 -10 10 -128 10 -200 -1z"/>
<path d="M2980 3044 l-25 -14 35 0 c24 0 31 3 21 9 -11 7 -11 9 0 14 8 3 10 5
4 5 -5 0 -21 -6 -35 -14z"/>
<path d="M3527 3025 c-5 -10 0 -15 14 -15 12 0 19 5 17 12 -6 18 -25 20 -31 3z"/>
<path d="M3590 3028 l25 -11 -25 -5 c-40 -6 -46 -21 -7 -19 19 1 32 6 29 11
-3 5 3 6 14 3 15 -6 14 -3 -5 13 -13 11 -31 20 -40 19 -10 0 -7 -4 9 -11z"/>
<path d="M3485 3020 c3 -5 8 -10 11 -10 2 0 4 5 4 10 0 6 -5 10 -11 10 -5 0
-7 -4 -4 -10z"/>
<path d="M4030 3011 c13 -26 13 -34 -3 -28 -10 4 -11 -4 -3 -39 13 -56 25 -57
20 -1 -2 23 -1 33 2 22 4 -11 10 -24 14 -30 18 -22 31 -96 20 -110 -6 -7 -8
-26 -5 -42 5 -25 3 -24 -10 7 -13 29 -14 30 -10 8 3 -16 1 -28 -5 -28 -5 0
-10 -7 -10 -16 0 -8 -4 -12 -10 -9 -5 3 -10 -2 -10 -12 1 -16 3 -16 19 4 22
26 30 22 24 -12 -4 -16 -10 -22 -20 -18 -10 4 -14 1 -12 -11 2 -9 9 -17 14
-18 15 -1 44 63 45 98 0 17 7 37 15 44 17 15 19 7 5 -21 -7 -13 -7 -19 0 -19
5 0 10 -7 10 -16 0 -8 -4 -12 -10 -9 -5 3 -10 2 -10 -4 0 -5 5 -13 10 -16 6
-3 10 -1 10 5 0 6 4 9 9 5 5 -3 13 0 17 6 5 8 3 9 -6 4 -10 -6 -12 -3 -8 13 4
14 2 20 -5 15 -6 -4 -8 2 -4 16 8 31 -12 88 -25 69 -7 -9 -8 -8 -6 7 4 18 -56
155 -68 155 -2 0 0 -9 6 -19z m66 -189 c-15 -15 -15 -15 -4 10 7 15 15 23 17
17 2 -6 -4 -18 -13 -27z"/>
<path d="M2080 2983 c-15 -30 -20 -84 -7 -76 4 2 7 12 7 21 0 10 6 27 14 38 8
11 11 26 7 32 -5 9 -12 4 -21 -15z"/>
<path d="M2117 2994 c3 -7 9 -14 14 -14 14 0 10 17 -5 23 -10 4 -13 1 -9 -9z"/>
<path d="M2948 3003 c7 -3 16 -2 19 1 4 3 -2 6 -13 5 -11 0 -14 -3 -6 -6z"/>
<path d="M2858 2976 c-29 -23 -35 -36 -17 -36 5 0 7 5 3 12 -5 7 -1 9 13 6 27
-7 58 15 41 30 -9 7 -21 4 -40 -12z m23 -9 c-10 -9 -11 -8 -5 6 3 10 9 15 12
12 3 -3 0 -11 -7 -18z"/>
<path d="M3504 2985 c11 -8 22 -12 25 -9 6 6 -19 24 -34 24 -5 -1 -1 -7 9 -15z"/>
<path d="M3575 2980 c-4 -6 -10 -8 -15 -5 -5 3 -11 1 -14 -4 -4 -5 -2 -12 3
-15 5 -4 12 -2 16 4 3 5 11 10 17 10 7 0 6 -5 -2 -15 -9 -11 -8 -19 4 -37 9
-12 16 -17 16 -11 0 7 -5 15 -10 18 -7 4 -7 11 -2 18 11 14 12 47 1 47 -4 0
-11 -5 -14 -10z"/>
<path d="M3917 2962 c11 -18 24 -30 31 -27 9 3 11 -1 7 -15 -3 -11 3 -35 15
-57 20 -35 22 -32 5 10 -10 25 10 21 23 -5 7 -15 11 -18 11 -7 1 8 -6 24 -14
35 -13 16 -16 17 -25 4 -9 -12 -10 -8 -5 15 3 19 0 38 -9 50 -14 19 -15 19 -9
-5 5 -25 5 -24 -21 5 l-26 30 17 -33z"/>
<path d="M3980 2948 c18 -41 51 -71 37 -34 -4 10 -7 25 -7 34 0 14 -2 15 -9 3
-8 -12 -11 -9 -16 12 -4 15 -11 27 -16 27 -4 0 1 -19 11 -42z"/>
<path d="M3691 2943 c7 -12 15 -20 18 -17 3 2 -3 12 -13 22 -17 16 -18 16 -5
-5z"/>
<path d="M2087 2918 c-2 -13 -8 -32 -12 -42 -6 -13 -5 -17 3 -13 6 4 12 2 15
-5 2 -7 2 1 0 17 -3 21 -1 26 5 16 8 -11 12 -10 20 6 8 14 8 23 0 31 -17 17
-25 15 -31 -10z"/>
<path d="M2804 2932 c4 -7 1 -12 -7 -12 -8 0 -21 -8 -28 -17 -11 -15 -11 -16
1 -5 17 14 34 16 25 2 -3 -5 -4 -10 -1 -10 3 0 10 9 16 19 7 14 7 22 -2 27 -7
4 -8 3 -4 -4z"/>
<path d="M2036 2904 c-3 -9 -4 -20 0 -25 3 -5 1 -9 -5 -9 -6 0 -8 -7 -4 -15 8
-23 16 -10 19 30 3 38 0 44 -10 19z"/>
<path d="M3615 2910 c-3 -5 -4 -10 -1 -10 2 0 11 -3 20 -6 11 -4 16 -1 16 10
0 18 -25 22 -35 6z"/>
<path d="M3694 2899 c-4 -7 -3 -9 4 -5 5 3 13 0 15 -6 4 -9 6 -10 6 -1 1 17
-16 25 -25 12z"/>
<path d="M2126 2883 c-6 -14 -5 -15 5 -6 7 7 10 15 7 18 -3 3 -9 -2 -12 -12z"/>
<path d="M3614 2874 c9 -8 16 -20 16 -25 0 -5 5 -9 10 -9 6 0 3 11 -6 25 -9
14 -21 25 -26 25 -5 0 -2 -7 6 -16z"/>
<path d="M3655 2880 c-4 -6 -4 -14 0 -18 4 -4 10 -1 13 7 4 11 6 11 14 0 8
-12 9 -12 6 0 -5 19 -24 25 -33 11z"/>
<path d="M2715 2850 c-30 -31 -41 -60 -23 -60 6 0 8 6 5 14 -6 14 35 61 45 51
2 -3 5 2 5 10 0 19 2 20 -32 -15z"/>
<path d="M3695 2850 c-3 -5 -2 -10 4 -10 5 0 13 5 16 10 3 6 2 10 -4 10 -5 0
-13 -4 -16 -10z"/>
<path d="M2006 2835 c-3 -9 0 -15 9 -15 9 0 12 6 9 15 -4 8 -7 15 -9 15 -2 0
-5 -7 -9 -15z"/>
<path d="M2055 2828 c-11 -35 -11 -52 -1 -66 6 -8 9 -30 8 -49 -2 -19 1 -40 7
-47 5 -6 11 -20 14 -31 3 -11 3 5 0 36 -4 41 -1 64 12 88 9 18 14 35 11 39 -3
3 -6 -1 -7 -9 0 -9 -4 -6 -10 6 -8 17 -9 17 -5 -5 3 -14 1 -32 -4 -40 -8 -13
-10 -12 -10 3 0 9 -4 17 -9 17 -6 0 -5 15 1 36 10 39 5 59 -7 22z"/>
<path d="M2130 2830 c0 -11 2 -20 4 -20 2 0 6 9 9 20 3 11 1 20 -4 20 -5 0 -9
-9 -9 -20z"/>
<path d="M3666 2833 c-6 -14 -5 -15 5 -6 7 7 10 15 7 18 -3 3 -9 -2 -12 -12z"/>
<path d="M4020 2803 c0 -13 5 -23 10 -23 13 0 13 11 0 30 -8 12 -10 11 -10 -7z"/>
<path d="M2011 2784 c0 -11 3 -14 6 -6 3 7 2 16 -1 19 -3 4 -6 -2 -5 -13z"/>
<path d="M4000 2788 c0 -9 5 -20 10 -23 13 -8 13 5 0 25 -8 13 -10 13 -10 -2z"/>
<path d="M1991 2774 c0 -11 3 -14 6 -6 3 7 2 16 -1 19 -3 4 -6 -2 -5 -13z"/>
<path d="M2648 2768 c-16 -29 -18 -47 -8 -53 7 -4 20 16 24 35 1 3 5 10 9 17
4 6 3 14 -2 18 -6 3 -16 -5 -23 -17z"/>
<path d="M2518 2769 c-6 -19 3 -59 13 -59 4 0 6 14 4 31 -4 36 -11 46 -17 28z"/>
<path d="M2562 2744 c-7 -8 -12 -20 -9 -27 2 -7 9 -2 16 11 15 28 11 36 -7 16z"/>
<path d="M2493 2715 c-6 -14 -7 -25 -2 -25 11 0 22 25 17 39 -1 6 -8 -1 -15
-14z"/>
<path d="M1968 2688 c0 -18 0 -46 1 -62 2 -15 -1 -26 -6 -23 -4 3 -9 -11 -10
-31 l-2 -37 13 36 c7 19 13 61 14 92 1 60 -7 81 -10 25z"/>
<path d="M2091 2704 c0 -11 3 -14 6 -6 3 7 2 16 -1 19 -3 4 -6 -2 -5 -13z"/>
<path d="M2598 2692 c-11 -19 -14 -33 -8 -42 7 -11 10 -12 10 -2 0 7 4 11 9 7
5 -3 13 0 17 6 4 7 3 9 -4 5 -16 -10 -25 13 -11 30 6 8 10 16 7 19 -2 2 -11
-8 -20 -23z"/>
<path d="M4080 2701 c0 -5 -3 -18 -6 -28 -6 -16 -5 -16 9 2 19 23 21 35 7 35
-5 0 -10 -4 -10 -9z"/>
<path d="M4140 2694 c0 -8 5 -12 10 -9 6 3 10 10 10 16 0 5 -4 9 -10 9 -5 0
-10 -7 -10 -16z"/>
<path d="M1990 2655 c0 -27 3 -46 6 -42 3 3 6 22 6 42 0 20 -3 39 -6 42 -3 4
-6 -15 -6 -42z"/>
<path d="M2541 2686 c-7 -8 -10 -20 -6 -26 3 -5 3 -15 -1 -22 -5 -8 -10 -6
-15 8 -5 13 -7 8 -4 -16 4 -51 4 -50 16 -50 6 0 9 6 6 14 -3 7 1 33 9 56 16
46 14 59 -5 36z"/>
<path d="M2465 2670 c-4 -6 -1 -9 7 -8 9 2 13 -10 13 -39 0 -24 -1 -43 -3 -43
-1 0 -7 11 -12 25 -5 14 -15 25 -21 25 -8 0 -8 -5 1 -15 10 -12 10 -19 2 -27
-7 -7 -12 -17 -12 -22 0 -6 5 -3 11 7 10 17 12 17 29 -3 10 -12 17 -30 15 -41
-2 -10 1 -21 6 -25 6 -3 9 12 8 40 -2 25 -6 46 -10 46 -4 0 -5 15 -2 33 5 35
-18 70 -32 47z"/>
<path d="M2017 2653 c-4 -3 -6 -22 -6 -42 1 -21 3 -28 6 -16 3 11 12 25 20 32
8 6 12 16 8 22 -7 12 -19 14 -28 4z"/>
<path d="M4042 2640 c0 -14 2 -19 5 -12 2 6 2 18 0 25 -3 6 -5 1 -5 -13z"/>
<path d="M2460 2641 c0 -6 5 -13 10 -16 6 -3 10 1 10 9 0 9 -4 16 -10 16 -5 0
-10 -4 -10 -9z"/>
<path d="M4160 2624 c0 -10 5 -26 10 -34 8 -11 9 -7 4 15 -8 37 -14 45 -14 19z"/>
<path d="M2578 2613 c0 -10 -1 -27 0 -38 0 -11 -2 -14 -4 -7 -3 6 -11 12 -17
12 -8 0 -7 -4 1 -12 7 -7 12 -25 12 -42 0 -16 2 -27 4 -25 7 7 18 129 12 129
-4 0 -7 -8 -8 -17z"/>
<path d="M2557 2613 c-4 -3 -7 -11 -7 -17 0 -6 5 -5 12 2 6 6 9 14 7 17 -3 3
-9 2 -12 -2z"/>
<path d="M2067 2570 c3 -11 7 -20 9 -20 2 0 4 9 4 20 0 11 -4 20 -9 20 -5 0
-7 -9 -4 -20z"/>
<path d="M2803 2583 c9 -2 25 -2 35 0 9 3 1 5 -18 5 -19 0 -27 -2 -17 -5z"/>
<path d="M4056 2581 c-4 -7 -5 -15 -2 -18 9 -9 19 4 14 18 -4 11 -6 11 -12 0z"/>
<path d="M2030 2565 c0 -8 -4 -15 -10 -15 -5 0 -10 -8 -10 -17 0 -14 -2 -15
-9 -5 -11 18 -21 -67 -12 -105 5 -22 7 -16 12 32 6 55 7 53 5 -23 -1 -45 0
-78 2 -72 2 5 7 8 12 5 11 -7 22 97 15 138 -4 20 -2 44 4 56 8 14 8 21 1 21
-5 0 -10 -7 -10 -15z"/>
<path d="M2600 2566 c0 -14 47 -66 61 -66 18 0 58 23 53 31 -2 4 6 17 18 28
12 12 16 21 9 21 -17 0 -42 -26 -33 -35 4 -3 -7 -4 -23 -1 -28 6 -29 6 -5 -4
20 -9 22 -13 10 -20 -8 -5 -22 -10 -30 -10 -13 0 -13 1 0 10 13 9 13 10 0 11
-8 1 -18 1 -23 0 -4 -1 -12 10 -17 24 -10 27 -20 33 -20 11z"/>
<path d="M2903 2568 c15 -5 27 -14 27 -19 0 -13 -24 -11 -38 3 -8 8 -12 9 -12
1 0 -6 6 -14 13 -16 9 -4 9 -6 0 -6 -7 -1 -10 -8 -7 -16 4 -10 0 -15 -12 -15
-38 0 -4 -11 46 -14 38 -3 58 -10 69 -24 9 -11 23 -18 32 -17 13 2 17 -5 16
-35 l-1 -38 -25 17 c-14 9 -22 11 -18 4 5 -8 3 -13 -5 -13 -7 0 3 -13 22 -29
23 -20 42 -28 54 -24 14 4 18 1 13 -10 -3 -9 2 -21 11 -29 16 -12 16 -11 2 6
-14 18 -13 19 4 12 19 -6 19 -6 3 12 -9 10 -17 25 -17 32 0 9 -5 7 -14 -6 -15
-19 -15 -19 -38 5 -16 17 -18 22 -7 18 11 -4 29 8 53 35 20 22 30 38 21 34
-42 -17 -48 -17 -25 -1 14 10 27 20 29 21 10 9 -22 32 -36 27 -13 -5 -15 -2
-10 13 6 15 3 14 -11 -5 l-19 -24 -48 19 c-39 14 -44 19 -29 25 27 11 36 10
29 -1 -7 -11 47 -14 58 -3 7 7 -22 32 -38 32 -5 0 -1 -6 9 -14 30 -23 1 -18
-36 6 -28 17 -29 19 -8 14 14 -4 22 -4 17 1 -9 9 -77 34 -92 33 -5 0 2 -5 18
-11z m57 -42 c0 -2 -13 -6 -30 -8 -16 -3 -30 -1 -30 4 0 4 14 8 30 8 17 0 30
-2 30 -4z m116 -59 c18 7 18 6 1 -12 -16 -15 -20 -16 -28 -4 -5 8 -9 19 -9 24
0 6 4 4 8 -3 5 -8 16 -10 28 -5z"/>
<path d="M2407 2553 c-4 -3 -7 -11 -7 -17 0 -6 5 -5 12 2 6 6 9 14 7 17 -3 3
-9 2 -12 -2z"/>
<path d="M2775 2550 c-3 -5 1 -10 9 -10 9 0 16 5 16 10 0 6 -4 10 -9 10 -6 0
-13 -4 -16 -10z"/>
<path d="M1972 2525 c0 -16 2 -22 5 -12 2 9 2 23 0 30 -3 6 -5 -1 -5 -18z"/>
<path d="M4110 2534 c0 -8 5 -12 10 -9 6 3 10 10 10 16 0 5 -4 9 -10 9 -5 0
-10 -7 -10 -16z"/>
<path d="M4162 2525 c0 -16 2 -22 5 -12 2 9 2 23 0 30 -3 6 -5 -1 -5 -18z"/>
<path d="M2427 2533 c-4 -3 -7 -13 -7 -22 1 -13 3 -13 11 2 11 19 8 33 -4 20z"/>
<path d="M2590 2526 c0 -8 4 -17 10 -21 5 -3 7 -12 3 -20 -3 -8 -1 -15 5 -15
5 0 8 10 7 23 -1 12 -3 28 -4 35 -2 17 -21 15 -21 -2z"/>
<path d="M1943 2445 c0 -44 2 -61 4 -37 2 23 2 59 0 80 -2 20 -4 1 -4 -43z"/>
<path d="M2051 2445 c1 -58 3 -72 9 -50 11 44 11 98 0 115 -7 10 -9 -10 -9
-65z"/>
<path d="M4177 2406 c-5 -65 -6 -120 -3 -123 6 -6 19 199 14 223 -2 10 -7 -34
-11 -100z"/>
<path d="M2389 2503 c-1 -5 0 -16 1 -27 1 -10 -3 -15 -8 -12 -6 4 -8 -3 -5
-16 4 -19 3 -20 -6 -8 -7 9 -11 10 -11 3 0 -6 5 -15 10 -18 6 -3 10 -11 10
-17 0 -7 -5 -6 -14 1 -12 10 -14 8 -9 -11 4 -19 3 -20 -6 -8 -9 12 -10 9 -5
-14 5 -21 4 -27 -5 -22 -6 4 -11 2 -11 -4 0 -7 7 -10 15 -6 8 3 15 1 15 -4 0
-6 5 -10 10 -10 14 0 12 28 -2 32 -9 3 -8 9 5 22 18 18 21 28 17 60 -1 11 3
15 9 12 6 -4 11 0 11 8 0 8 -5 18 -10 21 -6 4 -8 11 -5 16 4 5 4 9 1 9 -3 0
-7 -3 -7 -7z"/>
<path d="M4063 2440 c0 -36 2 -50 4 -32 2 17 2 47 0 65 -2 17 -4 3 -4 -33z"/>
<path d="M2301 2474 c0 -11 3 -14 6 -6 3 7 2 16 -1 19 -3 4 -6 -2 -5 -13z"/>
<path d="M2560 2480 c0 -5 5 -10 11 -10 5 0 7 5 4 10 -3 6 -8 10 -11 10 -2 0
-4 -4 -4 -10z"/>
<path d="M2800 2480 c0 -5 7 -10 16 -10 8 0 12 5 9 10 -3 6 -10 10 -16 10 -5
0 -9 -4 -9 -10z"/>
<path d="M2283 2453 c2 -18 0 -33 -5 -33 -4 0 -8 8 -8 17 0 19 -13 9 -16 -12
-1 -8 2 -13 7 -9 5 3 9 -5 9 -18 0 -22 1 -22 14 4 10 19 12 35 5 55 -9 28 -9
28 -6 -4z"/>
<path d="M2690 2465 c-9 -11 -22 -14 -42 -10 -22 5 -28 3 -28 -10 0 -14 3 -15
14 -6 12 10 13 8 9 -10 -5 -18 -3 -21 11 -16 10 4 27 2 38 -4 13 -7 18 -7 14
-1 -4 6 5 22 19 36 25 25 27 25 55 11 16 -8 35 -15 42 -14 7 0 1 5 -14 11 -16
5 -28 14 -28 19 0 12 -37 11 -45 -1 -5 -8 -11 -8 -20 0 -9 7 -16 6 -25 -5z"/>
<path d="M2857 2469 c7 -7 15 -10 18 -7 3 3 -2 9 -12 12 -14 6 -15 5 -6 -5z"/>
<path d="M3130 2476 c0 -2 7 -7 16 -10 8 -3 12 -2 9 4 -6 10 -25 14 -25 6z"/>
<path d="M3118 2445 c5 -11 11 -24 12 -30 1 -5 4 -12 7 -15 4 -3 3 1 -1 8 -8
14 10 17 18 3 7 -11 -19 -33 -28 -23 -4 4 -6 0 -4 -8 2 -10 -3 -14 -14 -12
-10 2 -18 0 -18 -3 0 -15 22 -45 33 -45 7 0 23 -12 36 -25 l23 -25 -22 -18
-23 -18 32 -37 c20 -22 38 -34 47 -30 10 4 12 0 7 -13 -5 -13 -3 -15 7 -9 10
6 12 4 6 -10 -6 -18 -6 -18 15 1 l22 19 -8 -25 c-4 -14 -4 -22 0 -18 5 5 9 22
10 39 2 29 1 30 -12 14 -12 -18 -14 -18 -26 -1 -7 9 -19 16 -27 14 -8 -2 -14
4 -15 12 0 8 -3 15 -6 15 -3 0 -13 6 -22 14 -17 13 -14 31 4 31 6 0 8 -4 5 -8
-3 -5 1 -9 9 -9 8 0 17 9 21 19 5 16 16 22 36 19 4 0 4 7 1 17 -6 15 -5 15 10
3 9 -7 14 -17 11 -22 -5 -9 12 -14 31 -9 6 1 15 3 20 3 6 0 11 8 11 18 0 17
-2 17 -19 -2 -18 -20 -19 -20 -48 21 -16 22 -32 40 -36 40 -4 0 -2 -5 5 -12
14 -14 16 -32 2 -23 -6 4 -7 -1 -3 -11 4 -11 3 -15 -4 -11 -6 4 -13 2 -15 -4
-2 -6 -18 4 -36 21 -18 17 -30 34 -28 39 8 12 47 6 57 -10 7 -12 9 -11 9 3 0
26 -11 48 -21 42 -5 -3 -9 0 -9 5 0 6 -16 28 -36 48 -20 21 -32 29 -26 18z
m57 -93 c-4 -4 -10 -1 -12 6 -4 10 -12 7 -31 -10 -21 -19 -24 -19 -12 -3 27
38 43 47 53 29 5 -8 6 -19 2 -22z"/>
<path d="M4122 2440 c0 -14 2 -19 5 -12 2 6 2 18 0 25 -3 6 -5 1 -5 -13z"/>
<path d="M3178 2443 c6 -2 10 -8 7 -13 -2 -4 4 -15 15 -25 11 -10 20 -15 20
-10 0 4 7 2 15 -5 8 -7 12 -16 9 -21 -3 -5 -2 -9 3 -8 20 4 27 -2 13 -12 -13
-9 -12 -10 3 -5 12 4 21 -2 29 -19 6 -13 15 -22 20 -19 10 7 -121 144 -136
143 -6 0 -5 -3 2 -6z m33 -30 c13 -16 12 -17 -3 -4 -17 13 -22 21 -14 21 2 0
10 -8 17 -17z"/>
<path d="M2740 2430 c0 -5 6 -10 14 -10 8 0 18 5 21 10 3 6 -3 10 -14 10 -12
0 -21 -4 -21 -10z"/>
<path d="M2855 2430 c-3 -5 1 -10 9 -10 9 0 16 5 16 10 0 6 -4 10 -9 10 -6 0
-13 -4 -16 -10z"/>
<path d="M1971 2387 c-1 -24 5 -45 16 -55 16 -16 16 -16 9 3 -5 11 -12 36 -16
55 l-8 35 -1 -38z"/>
<path d="M2920 2412 c0 -5 12 -14 28 -21 l27 -13 -22 21 c-24 23 -33 26 -33
13z"/>
<path d="M2660 2400 c0 -5 -8 -7 -17 -3 -10 3 -15 3 -11 -1 3 -4 17 -9 31 -10
18 -2 24 1 20 10 -6 16 -23 19 -23 4z"/>
<path d="M4130 2383 c-1 -24 -2 -25 -11 -10 -13 23 -29 22 -29 -3 0 -15 7 -20
25 -20 21 0 25 5 25 30 0 17 -2 30 -5 30 -3 0 -5 -12 -5 -27z"/>
<path d="M2227 2384 c4 -12 3 -15 -5 -10 -8 5 -10 1 -5 -10 4 -11 3 -15 -5
-10 -8 4 -8 -3 -1 -26 13 -48 9 -70 -5 -24 -10 32 -14 36 -20 21 -4 -11 -2
-21 6 -26 7 -4 15 -41 18 -86 7 -82 11 -63 15 72 1 39 5 77 9 86 4 10 3 20 -3
24 -7 4 -8 0 -4 -11z"/>
<path d="M2246 2373 c-3 -10 -9 -24 -12 -30 -3 -8 1 -13 12 -13 9 0 14 3 11 7
-4 3 -3 11 3 17 5 7 5 18 1 25 -6 10 -10 8 -15 -6z"/>
<path d="M2391 2368 c-1 -16 4 -28 9 -28 12 0 12 8 0 35 -8 18 -9 17 -9 -7z"/>
<path d="M2641 2365 c1 -19 18 -51 18 -35 0 8 -4 22 -9 30 -5 8 -9 11 -9 5z"/>
<path d="M1952 2320 c2 -19 8 -33 13 -30 12 6 8 41 -6 55 -7 7 -9 -1 -7 -25z"/>
<path d="M2041 2323 c-15 -29 -17 -66 -3 -70 7 -3 10 1 6 11 -7 18 14 49 27
40 5 -3 9 4 9 15 0 26 -26 28 -39 4z"/>
<path d="M4050 2325 c0 -8 2 -15 4 -15 2 0 6 7 10 15 3 8 1 15 -4 15 -6 0 -10
-7 -10 -15z"/>
<path d="M4147 2311 c-2 -10 -1 -25 4 -32 6 -10 9 -4 9 19 0 36 -5 42 -13 13z"/>
<path d="M2241 2294 c0 -11 3 -14 6 -6 3 7 2 16 -1 19 -3 4 -6 -2 -5 -13z"/>
<path d="M4065 2289 c-5 -16 1 -27 27 -49 32 -27 33 -30 32 -95 -1 -47 1 -63
8 -51 5 9 6 26 3 37 -5 14 -3 19 3 15 14 -8 9 91 -5 105 -5 5 -21 10 -36 11
-22 2 -25 6 -21 25 8 29 -2 30 -11 2z"/>
<path d="M2652 2280 c0 -14 2 -19 5 -12 2 6 2 18 0 25 -3 6 -5 1 -5 -13z"/>
<path d="M2157 2239 c-10 -28 -17 -59 -16 -68 0 -9 7 6 14 33 8 27 18 52 24
55 5 4 6 12 2 19 -5 8 -14 -5 -24 -39z"/>
<path d="M2311 2274 c0 -11 3 -14 6 -6 3 7 2 16 -1 19 -3 4 -6 -2 -5 -13z"/>
<path d="M2566 2275 c-9 -23 -8 -25 9 -25 17 0 19 9 6 28 -7 11 -10 10 -15 -3z"/>
<path d="M2078 2253 c-2 -18 -1 -30 3 -28 3 3 10 -14 13 -37 5 -30 3 -46 -6
-53 -16 -12 -22 -65 -7 -65 5 0 7 -6 3 -12 -5 -10 -4 -10 7 0 8 7 12 27 10 48
-2 24 1 34 8 30 6 -4 11 -15 12 -24 0 -14 2 -13 9 3 12 27 12 43 0 25 -11 -18
-13 -14 -33 80 -12 57 -14 61 -19 33z"/>
<path d="M2333 2258 c2 -16 0 -28 -4 -28 -5 0 -9 6 -10 13 0 6 -4 3 -9 -8 -12
-28 -12 -177 0 -195 8 -10 9 7 4 57 -7 82 0 123 21 123 17 0 20 28 4 50 -8 12
-10 9 -6 -12z"/>
<path d="M4032 2219 c-16 -67 -16 -91 1 -60 17 34 32 23 30 -24 l-2 -40 8 38
c5 21 5 53 1 70 -5 18 -8 24 -9 15 -1 -9 -6 -20 -12 -24 -8 -5 -9 6 -4 35 10
58 1 51 -13 -10z"/>
<path d="M1991 2244 c0 -11 3 -14 6 -6 3 7 2 16 -1 19 -3 4 -6 -2 -5 -13z"/>
<path d="M2380 2250 c0 -5 5 -10 11 -10 5 0 7 5 4 10 -3 6 -8 10 -11 10 -2 0
-4 -4 -4 -10z"/>
<path d="M4162 2240 c0 -14 2 -19 5 -12 2 6 2 18 0 25 -3 6 -5 1 -5 -13z"/>
<path d="M2644 2216 c0 -19 4 -32 8 -30 4 3 8 18 8 35 0 16 -4 29 -8 29 -4 0
-8 -15 -8 -34z"/>
<path d="M1973 2205 c0 -22 2 -30 4 -17 2 12 2 30 0 40 -3 9 -5 -1 -4 -23z"/>
<path d="M2590 2230 c0 -5 5 -10 10 -10 6 0 10 5 10 10 0 6 -4 10 -10 10 -5 0
-10 -4 -10 -10z"/>
<path d="M4080 2230 c0 -5 5 -10 11 -10 5 0 7 5 4 10 -3 6 -8 10 -11 10 -2 0
-4 -4 -4 -10z"/>
<path d="M2389 2225 c0 -6 -2 -26 -5 -45 l-4 -35 17 33 c12 25 13 36 4 45 -6
6 -11 7 -12 2z"/>
<path d="M2021 2208 c0 -9 -4 -25 -7 -35 -5 -17 -5 -17 6 0 6 10 9 25 7 35 -4
15 -5 15 -6 0z"/>
<path d="M2190 2200 c-1 -23 -2 -23 -10 -5 -6 15 -9 9 -8 -25 l0 -45 14 34 c8
18 13 41 11 50 -3 10 -5 7 -7 -9z"/>
<path d="M2684 2197 c4 -13 0 -20 -13 -24 -28 -7 -34 -40 -7 -47 30 -8 36 -7
36 4 0 6 -5 9 -11 8 -6 -2 -14 3 -16 11 -4 9 0 11 16 6 25 -8 26 1 5 35 -9 14
-13 17 -10 7z"/>
<path d="M3366 2195 c-3 -9 -6 -22 -5 -28 0 -7 5 -1 10 12 5 13 8 26 5 28 -2
2 -6 -3 -10 -12z"/>
<path d="M4080 2200 c0 -5 5 -10 11 -10 5 0 7 5 4 10 -3 6 -8 10 -11 10 -2 0
-4 -4 -4 -10z"/>
<path d="M2074 2188 c3 -9 0 -19 -7 -21 -7 -2 -9 -8 -4 -12 15 -16 30 12 17
32 -9 14 -10 15 -6 1z"/>
<path d="M3390 2185 c-16 -19 -2 -38 29 -40 16 -1 17 1 8 16 -8 14 -14 15 -20
6 -6 -8 -7 -4 -4 11 6 26 4 27 -13 7z"/>
<path d="M2348 2108 c1 -40 5 -83 7 -95 8 -36 25 -27 25 12 0 19 -4 35 -10 35
-13 0 -13 37 -1 42 12 4 -1 70 -14 75 -6 2 -9 -26 -7 -69z"/>
<path d="M3300 2155 c0 -20 4 -26 18 -23 9 2 17 12 17 23 0 11 -8 21 -17 23
-14 3 -18 -3 -18 -23z"/>
<path d="M4089 2155 c-4 -71 -4 -84 0 -80 2 3 10 -3 18 -13 14 -16 14 -16 8 3
-4 11 -7 36 -6 55 1 46 -18 79 -20 35z m8 -47 c-3 -8 -6 -5 -6 6 -1 11 2 17 5
13 3 -3 4 -12 1 -19z"/>
<path d="M1981 2155 c1 -19 18 -51 18 -35 0 8 -4 22 -9 30 -5 8 -9 11 -9 5z"/>
<path d="M2021 2151 c-9 -6 -10 -11 -2 -15 6 -4 9 -11 6 -16 -3 -5 3 -8 14 -7
16 1 18 4 9 22 -6 11 -11 21 -12 22 -1 1 -8 -2 -15 -6z"/>
<path d="M2723 2140 c-2 -23 15 -36 28 -23 6 6 3 16 -9 26 -17 15 -18 15 -19
-3z m22 -10 c3 -5 1 -10 -4 -10 -6 0 -11 5 -11 10 0 6 2 10 4 10 3 0 8 -4 11
-10z"/>
<path d="M2148 2122 c-3 -12 -2 -20 3 -16 5 3 6 -15 3 -40 -7 -47 6 -62 24
-29 8 13 11 10 17 -17 7 -34 -22 -150 -37 -150 -13 0 -9 -30 5 -31 6 -1 19 -2
27 -3 8 0 14 -7 12 -14 -1 -8 2 -11 8 -7 8 5 8 11 -1 21 -7 9 -9 33 -5 71 9
79 9 90 3 156 -5 61 -17 90 -17 43 0 -15 -7 -34 -15 -42 -13 -14 -15 -14 -15
-1 0 9 4 17 9 19 5 2 4 16 -3 33 -12 28 -13 29 -18 7z"/>
<path d="M3370 2133 c0 -6 5 -15 10 -18 8 -5 7 -11 -1 -21 -9 -11 -8 -14 5
-14 9 0 16 6 16 13 0 17 -29 56 -30 40z"/>
<path d="M3437 2117 c-3 -8 1 -14 8 -14 7 0 11 6 8 14 -3 7 -6 13 -8 13 -2 0
-5 -6 -8 -13z"/>
<path d="M4006 2121 c-4 -7 -5 -15 -2 -18 9 -9 19 4 14 18 -4 11 -6 11 -12 0z"/>
<path d="M2797 2095 c2 -7 22 -18 44 -25 44 -15 50 -24 17 -26 -45 -3 -68 -8
-68 -15 0 -13 29 -18 33 -6 2 6 17 12 33 12 42 2 36 21 -17 48 -26 13 -45 18
-42 12z"/>
<path d="M3240 2109 c0 -4 7 -22 15 -40 8 -19 14 -28 15 -21 0 6 7 12 16 12 8
0 12 5 9 11 -4 5 -12 8 -18 6 -7 -2 -17 5 -24 17 -7 12 -12 18 -13 15z"/>
<path d="M2004 2087 c4 -11 9 -30 12 -43 3 -13 12 -24 19 -24 9 0 11 8 8 23
-5 22 -5 22 11 2 17 -20 17 -20 10 5 -12 47 -21 55 -29 30 l-7 -23 -15 24 c-8
14 -12 16 -9 6z"/>
<path d="M2720 2085 c-10 -12 -10 -15 4 -15 9 0 16 7 16 15 0 8 -2 15 -4 15
-2 0 -9 -7 -16 -15z"/>
<path d="M3424 2073 c-15 -36 -15 -80 0 -96 9 -9 16 -22 17 -29 1 -7 7 7 14
32 10 35 13 39 14 18 1 -34 11 -58 22 -58 6 0 5 10 -2 21 -6 12 -9 39 -6 59 6
48 -6 71 -22 42 -6 -11 -11 -31 -12 -44 0 -22 -1 -22 -8 -3 -5 11 -7 23 -4 28
2 4 -1 7 -8 7 -7 0 -9 3 -5 8 4 4 13 7 19 7 5 0 12 6 15 13 6 19 -25 14 -34
-5z m48 -35 c-7 -7 -12 -8 -12 -2 0 14 12 26 19 19 2 -3 -1 -11 -7 -17z"/>
<path d="M3972 2042 c-12 -28 -22 -55 -22 -61 0 -6 -4 -11 -9 -11 -5 0 -12 -8
-15 -17 -7 -17 -6 -17 10 -1 16 16 18 16 31 0 13 -15 13 -15 4 5 -15 31 -14
43 5 36 8 -3 13 -11 10 -18 -2 -7 0 -17 5 -22 9 -9 13 -29 18 -80 0 -7 5 -13
11 -13 5 0 6 7 3 17 -4 11 -3 14 5 9 17 -10 15 4 -4 25 -12 13 -13 22 -5 37
15 29 -18 98 -39 80 -8 -8 -7 -1 4 15 9 16 16 33 14 39 -2 6 -14 -12 -26 -40z"/>
<path d="M2762 2055 c10 -11 45 -13 59 -4 10 6 2 9 -25 9 -22 0 -37 -2 -34 -5z"/>
<path d="M4020 2052 c0 -12 14 -27 27 -29 17 -4 5 24 -13 31 -8 3 -14 2 -14
-2z"/>
<path d="M3270 2021 c-6 -16 -26 -36 -43 -45 -18 -9 -25 -16 -16 -16 8 0 20 5
25 10 13 13 45 2 43 -14 -3 -26 2 -34 21 -29 11 3 23 9 26 14 3 5 -3 6 -12 2
-14 -5 -16 -2 -12 15 4 15 1 23 -13 27 -10 4 -16 12 -12 20 3 8 8 13 12 11 4
-3 8 4 8 15 2 29 -13 23 -27 -10z"/>
<path d="M2963 2023 c9 -2 23 -2 30 0 6 3 -1 5 -18 5 -16 0 -22 -2 -12 -5z"/>
<path d="M4074 2015 c-4 -10 -13 -13 -25 -10 -11 4 -19 2 -19 -4 0 -19 39 -12
50 9 6 11 8 20 5 20 -3 0 -8 -7 -11 -15z"/>
<path d="M2125 2011 c-3 -6 -4 -11 0 -11 3 0 -1 -13 -9 -29 -14 -26 -14 -30 0
-42 14 -12 14 -14 -1 -26 -16 -11 -17 -15 -2 -46 18 -38 47 -67 47 -48 0 6 -6
14 -14 17 -16 6 -19 84 -4 84 4 0 8 -5 8 -12 0 -6 3 -8 7 -5 3 4 -2 16 -11 26
-13 14 -15 24 -8 38 14 28 3 78 -13 54z m5 -131 c0 -5 -2 -10 -4 -10 -3 0 -8
5 -11 10 -3 6 -1 10 4 10 6 0 11 -4 11 -10z"/>
<path d="M2312 2000 c0 -14 2 -19 5 -12 2 6 2 18 0 25 -3 6 -5 1 -5 -13z"/>
<path d="M2036 1997 c3 -10 9 -15 12 -12 3 3 0 11 -7 18 -10 9 -11 8 -5 -6z"/>
<path d="M3044 2002 c4 -6 22 -14 41 -18 20 -3 38 -10 41 -15 3 -5 15 -9 27
-9 21 0 21 1 -4 14 -14 7 -37 16 -51 19 -14 4 -34 10 -44 14 -11 4 -15 3 -10
-5z"/>
<path d="M2069 1990 c-1 -5 -1 -19 -1 -30 0 -35 2 -41 12 -35 6 3 10 1 10 -4
0 -6 5 -11 10 -11 17 0 11 18 -8 24 -14 5 -17 14 -14 36 2 17 2 30 -2 30 -3 0
-6 -4 -7 -10z"/>
<path d="M3500 1988 c0 -9 5 -20 10 -23 13 -8 13 5 0 25 -8 13 -10 13 -10 -2z"/>
<path d="M4055 1965 c-14 -13 -25 -29 -25 -34 0 -16 18 -22 26 -10 4 8 3 9 -4
5 -20 -12 -13 4 13 30 14 14 25 27 25 29 0 11 -12 4 -35 -20z"/>
<path d="M3049 1971 c11 -7 11 -10 0 -15 -8 -3 0 -3 18 0 17 3 34 0 38 -5 3
-6 16 -11 28 -11 17 1 12 5 -18 20 -41 20 -94 28 -66 11z"/>
<path d="M2324 1959 c-4 -7 -3 -14 4 -17 7 -2 10 -8 6 -13 -3 -5 0 -9 6 -9 7
0 10 -7 6 -15 -3 -8 -1 -15 4 -15 5 0 7 -6 5 -12 -3 -7 4 -24 15 -38 14 -17
18 -19 14 -6 -6 16 -5 17 15 7 23 -13 45 -6 35 10 -3 6 -13 9 -22 8 -36 -3
-51 1 -46 14 7 20 -32 102 -42 86z"/>
<path d="M2384 1945 c-3 -13 -2 -36 3 -51 8 -24 9 -20 10 24 1 57 -3 65 -13
27z"/>
<path d="M3220 1950 l-25 -8 27 -1 c15 -1 30 4 33 9 7 11 0 11 -35 0z"/>
<path d="M3520 1930 c0 -3 4 -19 9 -37 6 -22 6 -33 -2 -36 -8 -2 -8 -11 1 -33
8 -20 9 -41 2 -69 -10 -46 -5 -62 7 -19 11 41 8 158 -5 180 -6 11 -12 17 -12
14z"/>
<path d="M3120 1911 c-8 -6 -18 -7 -23 -4 -5 3 -8 0 -5 -8 3 -8 14 -15 24 -17
28 -4 77 16 69 28 -8 12 -45 13 -65 1z"/>
<path d="M3340 1910 c0 -5 5 -10 10 -10 6 0 10 5 10 10 0 6 -4 10 -10 10 -5 0
-10 -4 -10 -10z"/>
<path d="M3945 1883 c9 -7 11 -29 6 -58 -1 -5 -9 5 -18 23 -12 25 -18 30 -25
20 -8 -11 -10 -11 -15 0 -7 18 -43 -24 -44 -52 0 -12 -3 -16 -5 -9 -6 13 -74
-57 -74 -76 0 -6 -6 -10 -12 -8 -8 1 -12 -6 -10 -17 3 -13 -1 -17 -12 -13 -10
4 -13 1 -9 -9 6 -16 23 -19 23 -4 0 6 7 10 15 10 8 0 15 -4 15 -10 0 -5 -6
-10 -14 -10 -17 0 -41 -28 -32 -37 4 -4 12 -1 17 7 9 13 10 13 7 1 -7 -25 -26
-24 -52 2 -20 20 -27 22 -35 13 -6 -7 -7 -17 -3 -21 4 -5 -1 -5 -11 -2 -11 4
-16 3 -12 -3 3 -6 21 -8 38 -5 l32 6 -30 -26 c-16 -14 -22 -22 -12 -19 19 7
24 -11 5 -20 -7 -3 -4 -4 7 -3 14 2 19 9 18 25 -3 25 12 30 21 7 3 -8 11 -15
17 -15 9 0 9 3 0 14 -9 10 -8 15 3 19 21 8 39 -16 23 -33 -6 -7 0 -5 15 6 15
10 28 25 28 32 0 7 10 16 23 21 26 10 65 51 49 51 -7 0 -12 11 -12 25 0 18 5
25 18 25 20 0 52 29 52 47 0 17 47 56 52 42 3 -9 7 -7 11 5 4 10 3 15 -3 11
-6 -3 -10 -1 -10 5 0 7 -6 10 -14 7 -8 -3 -13 1 -12 10 0 9 -6 18 -14 20 -9 3
-11 1 -5 -4z m-15 -47 c13 -36 2 -63 -33 -77 -18 -7 -36 -19 -41 -27 -7 -12
-10 -12 -17 -1 -7 11 -9 11 -9 1 0 -7 -4 -11 -10 -7 -5 3 -6 13 -3 23 5 14 3
15 -8 5 -28 -27 -31 -12 -4 17 27 28 30 29 46 14 19 -18 49 -13 49 8 0 9 -3 9
-12 0 -18 -18 -28 -14 -28 11 0 38 14 51 40 37 20 -11 22 -10 17 4 -4 9 -4 16
-1 16 2 0 9 -11 14 -24z m-114 -127 c5 -8 8 -8 13 0 5 8 13 5 26 -9 14 -16 15
-23 6 -34 -7 -8 -18 -13 -25 -10 -12 4 -44 -23 -45 -38 -2 -17 -14 -12 -17 6
-1 11 8 27 21 38 22 17 25 48 4 48 -4 0 -5 -8 -2 -17 6 -17 6 -17 -10 -1 -9 9
-17 19 -17 22 0 11 39 6 46 -5z"/>
<path d="M3910 1804 c0 -8 5 -12 10 -9 6 3 10 10 10 16 0 5 -4 9 -10 9 -5 0
-10 -7 -10 -16z"/>
<path d="M3840 1679 c0 -5 5 -7 10 -4 6 3 10 8 10 11 0 2 -4 4 -10 4 -5 0 -10
-5 -10 -11z"/>
<path d="M2247 1873 c-2 -5 -5 -24 -5 -43 -1 -33 0 -34 12 -12 11 21 13 21 30
5 18 -17 18 -17 0 8 -13 19 -22 23 -27 15 -5 -6 -7 -2 -4 12 5 22 2 29 -6 15z"/>
<path d="M2528 1853 c7 -3 16 -2 19 1 4 3 -2 6 -13 5 -11 0 -14 -3 -6 -6z"/>
<path d="M2465 1829 c-9 -14 -1 -21 30 -24 19 -3 25 1 25 16 0 13 -7 19 -24
19 -14 0 -28 -5 -31 -11z"/>
<path d="M2260 1806 c0 -8 -8 -17 -17 -19 -17 -4 -17 -5 0 -6 10 0 15 -6 12
-11 -4 -7 -13 -7 -25 0 -15 8 -21 6 -30 -9 -8 -16 -6 -23 10 -34 11 -7 18 -16
15 -19 -3 -3 1 -11 9 -17 10 -8 16 -9 21 -1 4 6 1 9 -6 8 -7 -2 -14 3 -15 10
-1 6 -2 17 -3 23 0 5 -5 8 -9 5 -4 -2 -8 4 -8 15 0 12 4 15 10 9 14 -14 43
-12 49 3 4 9 8 8 17 -3 10 -13 11 -13 7 1 -3 9 0 22 6 29 10 10 7 10 -10 1
-19 -9 -22 -9 -17 3 3 8 1 17 -5 21 -6 3 -11 -1 -11 -9z"/>
<path d="M2533 1786 c3 -8 1 -17 -6 -20 -7 -2 -5 -5 5 -5 9 -1 18 -9 21 -18 2
-10 4 -1 4 20 1 27 -3 37 -14 37 -9 0 -13 -6 -10 -14z"/>
<path d="M3950 1779 c0 -5 5 -7 10 -4 6 3 10 8 10 11 0 2 -4 4 -10 4 -5 0 -10
-5 -10 -11z"/>
<path d="M2434 1762 c11 -12 21 -20 23 -18 3 2 17 -9 33 -24 16 -16 51 -38 77
-50 45 -20 50 -20 88 -5 39 15 41 15 60 -7 34 -38 67 -51 99 -38 16 6 27 12
25 13 -30 21 -60 37 -55 28 4 -6 2 -11 -3 -11 -6 0 -11 4 -11 9 0 9 -115 41
-147 41 -14 0 -15 -2 -4 -9 8 -5 21 -7 30 -4 9 3 6 -2 -7 -11 -14 -11 -30 -15
-43 -11 -17 6 -19 9 -8 17 10 6 7 7 -10 3 -15 -5 -21 -3 -17 3 9 14 -63 74
-81 68 -11 -4 -13 -2 -9 9 4 12 2 13 -13 6 -12 -7 -22 -6 -32 2 -7 7 -5 2 5
-11z m66 -22 c0 -5 -4 -10 -10 -10 -5 0 -10 5 -10 10 0 6 5 10 10 10 6 0 10
-4 10 -10z m30 -20 c0 -5 -4 -10 -10 -10 -5 0 -10 5 -10 10 0 6 5 10 10 10 6
0 10 -4 10 -10z"/>
<path d="M2320 1750 c0 -5 5 -12 10 -15 6 -3 10 -1 10 5 0 6 4 8 10 5 15 -9
-12 -33 -33 -29 -16 3 -17 1 -7 -12 10 -11 16 -12 27 -3 10 9 17 9 25 1 7 -7
8 -12 3 -12 -6 0 1 -6 15 -13 14 -7 24 -20 22 -29 -2 -12 3 -15 19 -11 15 4
20 3 15 -5 -4 -7 -2 -12 3 -12 17 0 13 11 -11 39 l-23 25 30 -18 30 -19 -30
32 c-16 17 -35 29 -43 26 -7 -2 -11 -1 -8 4 7 10 -29 44 -49 47 -8 1 -15 -2
-15 -6z m55 -30 c3 -5 1 -10 -4 -10 -6 0 -11 5 -11 10 0 6 2 10 4 10 3 0 8 -4
11 -10z"/>
<path d="M3885 1719 c-12 -18 3 -22 20 -5 14 14 14 16 1 16 -8 0 -18 -5 -21
-11z"/>
<path d="M2270 1685 c-10 -12 -10 -18 0 -30 7 -9 20 -13 28 -10 9 3 12 0 9 -9
-8 -19 18 -42 29 -25 5 8 3 9 -6 4 -10 -6 -12 -4 -6 10 4 11 2 22 -6 26 -7 5
-13 16 -13 25 0 23 -19 28 -35 9z m26 -14 c0 -11 -5 -17 -13 -14 -14 6 -17 16
-6 26 11 12 19 7 19 -12z"/>
<path d="M2848 1688 c9 -9 15 -9 24 0 9 9 7 12 -12 12 -19 0 -21 -3 -12 -12z"/>
<path d="M3424 1689 c-3 -5 0 -9 5 -9 6 0 11 -7 11 -15 0 -22 16 -18 34 7 9
12 19 19 22 15 4 -4 -2 -17 -14 -30 -12 -13 -22 -27 -22 -31 0 -9 60 55 60 64
0 9 -90 8 -96 -1z m33 -21 c-3 -8 -6 -5 -6 6 -1 11 2 17 5 13 3 -3 4 -12 1
-19z"/>
<path d="M2343 1665 c0 -8 4 -12 9 -9 5 3 6 10 3 15 -9 13 -12 11 -12 -6z"/>
<path d="M3363 1673 c-7 -3 -13 -12 -13 -20 0 -10 -5 -13 -17 -8 -22 8 -41 13
-30 8 4 -3 7 -13 7 -23 0 -17 19 -30 43 -30 7 0 6 4 -3 10 -8 5 -11 12 -7 16
4 4 13 2 19 -4 19 -19 25 -14 26 18 1 32 -6 40 -25 33z"/>
<path d="M2648 1643 c7 -3 16 -2 19 1 4 3 -2 6 -13 5 -11 0 -14 -3 -6 -6z"/>
<path d="M3264 1638 c-4 -7 -3 -8 4 -4 7 4 12 1 12 -8 0 -9 5 -16 10 -16 16 0
12 27 -5 33 -8 4 -17 1 -21 -5z"/>
<path d="M2485 1629 c-4 -6 -5 -12 -2 -15 2 -3 7 2 10 11 7 17 1 20 -8 4z"/>
<path d="M2670 1626 c0 -2 28 -14 62 -25 34 -12 58 -17 53 -12 -6 4 -32 16
-59 25 -54 17 -56 18 -56 12z"/>
<path d="M2375 1610 c4 -6 11 -8 16 -5 14 9 11 15 -7 15 -8 0 -12 -5 -9 -10z"/>
<path d="M2510 1610 c0 -5 5 -10 11 -10 5 0 7 5 4 10 -3 6 -8 10 -11 10 -2 0
-4 -4 -4 -10z"/>
<path d="M2876 1609 c2 -4 -15 -5 -38 -3 -41 3 -41 3 -8 -4 20 -5 41 -12 48
-16 19 -12 5 -25 -21 -19 -12 3 -19 3 -16 -1 3 -3 19 -8 35 -11 16 -2 43 -7
59 -10 29 -5 29 -4 -2 5 -18 6 -33 13 -33 16 0 3 15 11 33 19 l32 15 -45 -5
-45 -5 40 15 40 14 -42 -1 c-23 -1 -40 -5 -37 -9z"/>
<path d="M2346 1601 c-9 -14 20 -32 39 -24 11 4 16 2 12 -3 -3 -6 10 -10 31
-9 26 0 37 4 37 15 0 11 -12 15 -46 16 -25 0 -51 4 -57 8 -6 3 -13 2 -16 -3z
m29 -19 c-3 -3 -11 0 -18 7 -9 10 -8 11 6 5 10 -3 15 -9 12 -12z"/>
<path d="M3353 1597 c-60 -12 -72 -25 -17 -19 25 3 35 1 30 -7 -5 -7 -1 -9 9
-4 14 5 14 8 3 15 -9 7 -7 8 9 5 13 -3 24 1 27 9 3 8 2 13 -2 12 -4 0 -31 -6
-59 -11z"/>
<path d="M3585 1600 c-3 -5 -1 -10 4 -10 6 0 11 5 11 10 0 6 -2 10 -4 10 -3 0
-8 -4 -11 -10z"/>
<path d="M3566 1575 c4 -10 0 -15 -11 -15 -9 0 -13 5 -10 10 4 6 -3 6 -18 -1
-19 -8 -23 -16 -18 -33 6 -21 6 -21 9 2 2 12 7 22 12 22 4 0 6 -9 3 -20 -3
-12 0 -20 7 -20 7 0 10 6 7 14 -7 17 33 30 48 15 6 -7 7 -10 0 -9 -20 4 -35 0
-35 -10 0 -13 33 -13 47 1 8 8 17 7 34 -2 23 -12 23 -12 4 -20 -30 -12 -35
-10 -28 8 4 11 3 14 -6 9 -7 -5 -10 -15 -7 -23 4 -10 2 -13 -8 -10 -8 3 -20
-1 -26 -8 -10 -12 -7 -14 18 -12 17 1 28 6 24 11 -3 5 2 7 11 3 9 -3 23 0 31
8 7 8 16 12 18 9 3 -2 11 2 17 10 10 12 9 14 -8 9 -13 -3 -24 2 -32 15 -7 11
-19 18 -26 15 -8 -3 -23 4 -34 16 -23 25 -31 27 -23 6z"/>
<path d="M2543 1572 c-13 -2 -23 -8 -23 -13 0 -6 -9 -7 -20 -4 -11 3 -20 2
-20 -4 0 -5 14 -12 31 -16 28 -6 29 -8 12 -20 -16 -12 -13 -13 22 -9 134 15
137 15 131 -1 -3 -10 1 -15 14 -15 20 0 38 -37 23 -50 -4 -4 -24 -11 -43 -14
l-35 -6 35 15 35 15 -31 -4 c-23 -4 -31 -1 -31 10 0 10 7 14 19 11 10 -3 18
-1 18 4 0 9 -36 13 -75 9 -11 -1 -24 -8 -28 -16 -5 -8 -13 -11 -19 -8 -7 4 -8
2 -4 -4 5 -9 13 -9 26 -2 33 17 58 12 56 -11 -1 -17 9 -26 42 -40 23 -10 42
-14 42 -9 0 6 -7 10 -16 10 -14 0 -14 2 -3 16 7 9 25 21 39 26 25 10 25 10 3
20 -12 6 -23 19 -26 29 -4 16 -1 18 21 14 15 -2 9 2 -13 9 -22 8 -50 15 -63
15 -13 1 -21 5 -18 9 2 4 -13 8 -35 8 -28 1 -38 -3 -35 -12 3 -7 -1 -15 -8
-17 -15 -6 -16 37 -2 50 5 4 7 3 3 -2 -3 -6 3 -11 14 -11 10 0 19 1 19 3 0 8
-39 18 -57 15z"/>
<path d="M3720 1555 c-7 -8 -8 -15 -2 -15 5 0 15 7 22 15 7 8 8 15 2 15 -5 0
-15 -7 -22 -15z"/>
<path d="M3295 1550 c-13 -5 -14 -9 -5 -9 8 0 24 4 35 9 13 5 14 9 5 9 -8 0
-24 -4 -35 -9z"/>
<path d="M3473 1543 c-15 -5 -17 -23 -4 -23 5 0 11 7 15 15 3 8 4 15 3 14 -1
0 -8 -3 -14 -6z"/>
<path d="M3015 1529 c42 -8 182 -12 174 -5 -2 3 -51 6 -109 9 -68 3 -91 1 -65
-4z"/>
<path d="M3218 1533 c12 -2 30 -2 40 0 9 3 -1 5 -23 4 -22 0 -30 -2 -17 -4z"/>
<path d="M2463 1513 c0 -13 46 -38 66 -34 7 1 10 -2 7 -7 -4 -6 3 -8 15 -5 19
5 19 7 5 15 -10 5 -23 8 -30 5 -6 -3 -20 1 -30 8 -17 13 -17 14 0 23 16 9 15
10 -7 9 -14 -1 -26 -7 -26 -14z"/>
<path d="M3415 1521 c-19 -8 -19 -9 5 -16 l25 -8 -30 -14 c-23 -11 -25 -13 -6
-9 13 3 33 -2 45 -9 12 -8 38 -14 59 -13 38 1 48 11 22 22 -8 3 -15 1 -15 -4
0 -6 -8 -10 -17 -10 -14 0 -15 2 -4 9 7 5 10 14 6 20 -5 9 -10 9 -21 0 -11 -9
-19 -8 -34 6 -11 10 -17 22 -14 26 6 10 6 10 -21 0z"/>
<path d="M3348 1495 c-3 -3 -25 -10 -49 -15 l-44 -9 49 4 c49 5 64 10 54 20
-2 3 -7 3 -10 0z"/>
<path d="M3378 1493 c6 -2 18 -2 25 0 6 3 1 5 -13 5 -14 0 -19 -2 -12 -5z"/>
<path d="M2792 1474 c-14 -16 -5 -18 17 -5 7 5 9 11 5 14 -5 3 -15 -1 -22 -9z"/>
<path d="M2840 1471 c0 -5 21 -8 48 -8 41 0 43 1 17 7 -43 11 -65 11 -65 1z"/>
<path d="M3213 1463 c9 -2 23 -2 30 0 6 3 -1 5 -18 5 -16 0 -22 -2 -12 -5z"/>
<path d="M3343 1458 c1 -9 -14 -13 -50 -13 -30 0 -49 -3 -46 -9 4 -5 -1 -7
-10 -3 -24 9 -21 -6 4 -21 27 -17 106 -6 119 17 8 13 11 14 19 2 5 -7 14 -10
21 -6 6 4 20 -1 30 -10 18 -16 22 -16 70 0 28 9 49 19 47 21 -2 2 -23 -3 -47
-11 -53 -19 -60 -19 -60 -1 0 9 8 13 23 9 21 -4 21 -4 2 8 -11 7 -23 17 -26
22 -4 5 -16 4 -30 -3 -17 -10 -24 -10 -27 -1 -5 15 -43 14 -39 -1z"/>
<path d="M3050 1450 c52 -3 106 -3 120 1 14 4 -29 7 -95 7 l-120 -1 95 -7z"/>
<path d="M2585 1440 c-3 -5 -2 -10 4 -10 5 0 13 5 16 10 3 6 2 10 -4 10 -5 0
-13 -4 -16 -10z"/>
<path d="M2880 1436 c0 -10 -9 -16 -23 -16 -13 0 -28 -5 -34 -11 -5 -5 -25
-11 -42 -11 -21 -1 -28 -4 -19 -9 9 -6 8 -9 -6 -9 -11 0 -17 -3 -13 -6 3 -3
28 -1 54 5 26 7 51 10 54 9 4 -2 15 4 25 12 21 17 42 19 63 6 10 -7 12 -6 6 4
-6 10 -4 12 9 7 10 -4 21 -7 24 -7 4 0 0 -5 -8 -10 -11 -7 -5 -10 23 -10 23 0
36 -4 32 -10 -3 -5 -1 -10 4 -10 6 0 11 5 11 10 0 7 13 8 34 5 20 -4 36 -2 40
4 5 7 -7 11 -33 11 -55 0 -53 20 2 22 23 0 -3 4 -58 8 -55 3 -110 10 -122 14
-17 6 -23 3 -23 -8z"/>
<path d="M2770 1430 c0 -5 11 -10 25 -10 14 0 25 5 25 10 0 6 -11 10 -25 10
-14 0 -25 -4 -25 -10z"/>
<path d="M3168 1413 c6 -2 18 -2 25 0 6 3 1 5 -13 5 -14 0 -19 -2 -12 -5z"/>
<path d="M3400 1390 c0 -5 5 -10 10 -10 6 0 10 5 10 10 0 6 -4 10 -10 10 -5 0
-10 -4 -10 -10z"/>
<path d="M2838 1373 c7 -3 16 -2 19 1 4 3 -2 6 -13 5 -11 0 -14 -3 -6 -6z"/>
<path d="M2935 1370 l30 -7 -28 -7 c-17 -5 -32 -4 -41 3 -10 9 -15 8 -20 -4
-4 -11 2 -15 23 -15 26 0 101 25 101 34 0 2 -21 3 -47 3 -41 0 -43 -1 -18 -7z"/>
<path d="M3142 1371 c-9 -5 6 -12 44 -19 60 -12 88 -9 38 5 l-29 7 30 7 c25 5
22 7 -20 8 -27 0 -56 -3 -63 -8z"/>
<path d="M3320 1370 c8 -5 22 -10 30 -10 13 0 13 1 0 10 -8 5 -22 10 -30 10
-13 0 -13 -1 0 -10z"/>
<path d="M3030 1359 c-30 -5 -25 -7 30 -10 l65 -3 -85 -6 c-81 -6 -79 -6 40
-7 124 0 125 0 75 14 -66 19 -83 20 -125 12z"/>
<path d="M3275 1360 c27 -12 43 -12 25 0 -8 5 -22 9 -30 9 -10 0 -8 -3 5 -9z"/>
<path d="M2828 1353 c6 -2 18 -2 25 0 6 3 1 5 -13 5 -14 0 -19 -2 -12 -5z"/>
</g>
</svg>
